<svg width="56" height="70" viewBox="0 0 56 70" fill="none" xmlns="http://www.w3.org/2000/svg">
<path d="M8.50124 50.3949C7.30205 50.3949 6.15736 50.0654 5.1217 49.4614C3.54095 48.5279 2.39627 47.0453 1.9602 45.2882C1.52413 43.531 1.74216 41.6641 2.66881 40.0717L21.9104 7.67428C22.4555 6.7408 23.2731 5.91713 24.1997 5.36803C25.7805 4.43454 27.5793 4.15999 29.3781 4.59927C31.1223 5.03856 32.6486 6.13678 33.5752 7.72919L52.8168 40.0717C53.4164 41.115 53.7434 42.2681 53.7434 43.4761C53.7979 47.265 50.7454 50.3949 46.9844 50.3949H8.50124ZM25.7805 10.0354L6.59343 42.3779C6.32089 42.8721 6.21187 43.4761 6.3754 44.0802C6.53893 44.6842 6.92049 45.1784 7.41106 45.4529C7.73812 45.6726 8.11968 45.7824 8.50124 45.7824H46.9298C48.1835 45.7824 49.1647 44.7391 49.1647 43.4761C49.1647 43.0918 49.0557 42.7074 48.8376 42.3779L29.7051 10.0354C29.3781 9.54125 28.8875 9.15687 28.2879 8.99214C27.6883 8.82741 27.0887 8.93723 26.5436 9.26669C26.2711 9.48634 25.9985 9.76089 25.7805 10.0354Z" fill="black"/>
<path d="M28.0082 32.3292C26.7422 32.3292 25.6963 31.2756 25.6963 30.0002V20.7949C25.6963 19.5194 26.7422 18.4658 28.0082 18.4658C29.2743 18.4658 30.3201 19.5194 30.3201 20.7949V30.0556C30.3201 31.3311 29.2743 32.3292 28.0082 32.3292Z" fill="black"/>
<path d="M28.0082 41.5893C26.7422 41.5893 25.6963 40.5357 25.6963 39.2603C25.6963 37.9848 26.6871 36.9312 27.9532 36.9312C29.2192 36.9312 30.2651 37.9848 30.2651 39.2603C30.2651 40.5357 29.2743 41.5893 28.0082 41.5893Z" fill="black"/>
</svg>
