<svg width="540" height="623" viewBox="0 0 540 623" fill="none" xmlns="http://www.w3.org/2000/svg">
<path d="M4.3625 219.566C13.6094 177.534 31.0944 91.6207 40.5094 53.9602C49.9244 16.2996 110.001 2.96149 138.863 1C208.634 1 361.46 1 414.588 1C467.715 1 495.007 36.3068 502.013 53.9602L539 219.566M4.3625 219.566L539 219.566M4.3625 219.566L4.32195 229.653M1 1056H539M1 1056L4.32195 229.653M1 1056C6.88438 1041.43 22.52 1003.38 37.9875 967.733C53.455 932.09 94.3094 924.861 112.803 925.701H346.497M539 1056V225.45M539 1056C539 1050.12 534.124 1028.09 514.622 987.068C495.119 946.045 462.223 932.426 448.213 930.745L346.497 925.701M539 219.566V225.45M4.32195 229.653L285.131 252.351M285.131 252.351L539 225.45M285.131 252.351C301.103 253.471 333.215 265.296 333.888 303.629C334.56 341.963 342.574 734.316 346.497 925.701" stroke="black"/>
</svg>
