<svg width="540" height="404" viewBox="0 0 540 404" fill="none" xmlns="http://www.w3.org/2000/svg">
<path d="M1 837H539M1 837L4.32195 11.0824L4.3625 1H539V6.8814V837M1 837C6.88438 822.437 22.52 784.403 37.9875 748.779C53.455 713.154 94.3094 705.929 112.803 706.769H346.497M539 837C539 831.119 534.124 809.105 514.622 768.104C495.119 727.102 462.223 713.49 448.213 711.81L346.497 706.769M285.131 33.7678C301.103 34.8881 333.215 46.7069 333.888 85.0201C334.56 123.333 342.574 515.483 346.497 706.769" stroke="black"/>
<path d="M502.057 166.177L539 0.999984L4.99998 1.00003C14.2358 42.9231 31.7 128.614 41.1038 166.177C50.5075 203.74 110.513 217.044 139.34 219L414.736 219C467.8 219 495.06 183.785 502.057 166.177Z" fill="white" stroke="black"/>
</svg>
