<svg width="540" height="623" viewBox="0 0 540 623" fill="none" xmlns="http://www.w3.org/2000/svg">
<path d="M4.3625 219.566C13.6094 177.534 31.0944 91.6207 40.5094 53.9602C49.9244 16.2996 110.001 2.96149 138.863 1C208.634 1 361.46 1 414.588 1C467.715 1 495.007 36.3068 502.013 53.9602L539 219.566M4.3625 219.566L539 219.566M4.3625 219.566L4.32195 229.653M1 1056H539M1 1056L4.32195 229.653M1 1056C6.88438 1041.43 22.52 1003.38 37.9875 967.733C53.455 932.09 94.3094 924.861 112.803 925.701H346.497M539 1056V225.45M539 1056C539 1050.12 534.124 1028.09 514.622 987.068C495.119 946.045 462.223 932.426 448.213 930.745L346.497 925.701M539 219.566V225.45M4.32195 229.653L285.131 252.351M285.131 252.351L539 225.45M285.131 252.351C301.103 253.471 333.215 265.296 333.888 303.629C334.56 341.963 342.574 734.316 346.497 925.701" stroke="black"/>
<path d="M308.918 249.507L308.934 249.504L308.95 249.503L504.439 229.605C504.717 229.577 504.917 229.327 504.885 229.05L493.303 130.592C493.272 130.327 493.039 130.134 492.773 130.152L31.4466 161.35C31.1594 161.37 30.9479 161.627 30.9844 161.912L39.8935 231.635C39.9234 231.869 40.1126 232.05 40.3476 232.069L271.526 251.501L271.534 251.501L290.917 252.495C290.953 252.497 290.989 252.495 291.025 252.489L308.918 249.507Z" fill="white" stroke="black"/>
<path d="M231.409 192.798L230.59 180.7L238.206 180.185L239.024 192.283L237.457 192.389L236.721 181.5L232.247 181.802L232.983 192.691L231.409 192.798ZM241.783 192.096L240.271 192.198L243.179 179.849L244.777 179.741L249.344 191.585L247.723 191.695L246.709 189.093L242.422 189.383L241.783 192.096ZM242.714 188.149L246.245 187.911L244.052 182.225L243.83 183.462L242.714 188.149ZM251.308 191.452L250.038 191.538L249.22 179.441L250.802 179.334L254.131 187.111L256.383 178.956L257.926 178.852L258.745 190.949L257.295 191.047L256.741 182.276L256.702 182.278L256.43 183.361L254.918 188.781L253.343 188.887L251.091 183.723L250.715 182.683L250.676 182.686L250.787 183.743L251.308 191.452ZM263.945 185.75L261.254 190.779L259.384 190.906L262.322 185.375C261.595 185.043 260.995 184.548 260.522 183.891C260.027 183.204 259.751 182.445 259.695 181.614C259.657 181.058 259.771 180.544 260.037 180.072C260.307 179.594 260.692 179.226 261.192 178.968C261.691 178.709 262.479 178.544 263.554 178.471L266.789 178.252L267.607 190.35L266.033 190.456L265.706 185.631L263.945 185.75ZM265.624 184.415L265.297 179.575L264.12 179.654C262.997 179.73 262.225 179.965 261.803 180.359C261.38 180.748 261.19 181.252 261.231 181.87C261.311 183.044 262.027 183.943 263.379 184.567L265.624 184.415ZM272.775 190L272.047 179.236L268.422 179.481L268.332 178.148L277.164 177.551L277.254 178.884L273.622 179.129L274.35 189.894L272.775 190ZM279.588 189.54L278.769 177.442L280.344 177.336L280.745 183.267L284.841 177.032L286.51 176.919L282.556 182.957L287.936 188.975L285.964 189.108L280.745 183.267L281.162 189.433L279.588 189.54ZM289.721 188.854L288.208 188.957L291.116 176.607L292.714 176.499L297.282 188.343L295.66 188.453L294.646 185.851L290.359 186.141L289.721 188.854ZM290.652 184.907L294.183 184.669L291.989 178.983L291.768 180.22L290.652 184.907Z" fill="black"/>
<path d="M230.508 194.065L297.612 189.526L297.694 190.735L230.589 195.273L230.508 194.065Z" fill="black"/>
</svg>
