<svg width="882" height="441" viewBox="0 0 882 441" fill="none" xmlns="http://www.w3.org/2000/svg">
<line x1="-4.37114e-08" y1="0.500061" x2="882" y2="0.499984" stroke="#B6B6B6"/>
<line x1="-4.37114e-08" y1="20.5001" x2="882" y2="20.5" stroke="#B6B6B6"/>
<line x1="-4.37114e-08" y1="40.5002" x2="882" y2="40.5002" stroke="#B6B6B6"/>
<line x1="-4.37114e-08" y1="60.5003" x2="882" y2="60.5002" stroke="#B6B6B6"/>
<line x1="-4.37114e-08" y1="80.5004" x2="882" y2="80.5003" stroke="#B6B6B6"/>
<line x1="-4.37114e-08" y1="100.5" x2="882" y2="100.5" stroke="#B6B6B6"/>
<line x1="-4.37114e-08" y1="120.501" x2="882" y2="120.5" stroke="#B6B6B6"/>
<line x1="-4.37114e-08" y1="140.501" x2="882" y2="140.501" stroke="#B6B6B6"/>
<line x1="-4.37114e-08" y1="160.501" x2="882" y2="160.501" stroke="#B6B6B6"/>
<line x1="-4.37114e-08" y1="180.501" x2="882" y2="180.501" stroke="#B6B6B6"/>
<line x1="-4.37114e-08" y1="200.501" x2="882" y2="200.501" stroke="#B6B6B6"/>
<line x1="-4.37114e-08" y1="220.501" x2="882" y2="220.501" stroke="#B6B6B6"/>
<line x1="-4.37114e-08" y1="240.501" x2="882" y2="240.501" stroke="#B6B6B6"/>
<line x1="-4.37114e-08" y1="260.501" x2="882" y2="260.501" stroke="#B6B6B6"/>
<line x1="-4.37114e-08" y1="280.501" x2="882" y2="280.501" stroke="#B6B6B6"/>
<line x1="-4.37114e-08" y1="300.501" x2="882" y2="300.501" stroke="#B6B6B6"/>
<line x1="-4.37114e-08" y1="320.501" x2="882" y2="320.501" stroke="#B6B6B6"/>
<line x1="-4.37114e-08" y1="340.501" x2="882" y2="340.501" stroke="#B6B6B6"/>
<line x1="-4.37114e-08" y1="360.501" x2="882" y2="360.501" stroke="#B6B6B6"/>
<line x1="-4.37114e-08" y1="380.501" x2="882" y2="380.501" stroke="#B6B6B6"/>
<line x1="-4.37114e-08" y1="400.501" x2="882" y2="400.501" stroke="#B6B6B6"/>
<line x1="-4.37114e-08" y1="420.502" x2="882" y2="420.501" stroke="#B6B6B6"/>
<line x1="-4.37114e-08" y1="440.502" x2="882" y2="440.501" stroke="#B6B6B6"/>
</svg>
